:SAMPLES-PER-SECOND 30
:FULLY-SPECIFIED
:DEGREES
940
root  28.0498 37.1876 -16.9171 -47.4547 83.6064 -41.4893
RightUpLeg  -17.1059 -3.50429 5.9635
RightLeg  31.1801 -0.780072 -0.771636
RightFoot  -6.75044 0.153466 -4.95665
RightToes  -8.14909e-010 0 -3.6325e-017
Spine  6.74484 -2.94913 9.37526
Spine1  8.57268 -1.92065 2.12512
HEad  -24.8096 -57.0241 11.9216
LeftShoulder1  0.192695 2.93292 -27.6162
LeftArm  2.27136 6.28003 -45.1115
LeftForeArm  31.7971 -14.4232 -7.2486
LeftHand  0.00116166 7.94906 1.92351
RightShoulder  -0.415347 -4.93361 22.1174
RightArm  -20.6728 23.242 24.0856
RightForeArm  39.0481 24.2018 3.14992
RightHand  0.0806853 1.58947 1.18186
LeftUpLeg  -6.182 4.95153 5.21543
LeftLeg  65.8946 -3.8309 -8.67439
LeftFoot  11.2053 1.81263 -9.32671
LeftToes  1.648e-009 -9.21574e-011 2.55256e-011
941
root  29.3423 37.4611 -16.7896 -47.1841 84.2151 -40.9075
RightUpLeg  -14.0277 -4.04783 5.27419
RightLeg  30.4018 -0.740778 -0.729609
RightFoot  -8.56286 0.0583486 -4.79467
RightToes  -8.14909e-010 0 -3.6325e-017
Spine  6.58889 -2.53115 9.59116
Spine1  9.28335 -1.33349 1.74997
HEad  -24.3344 -56.4528 11.9204
LeftShoulder1  0.147502 3.07416 -28.1415
LeftArm  -1.72439 7.46289 -43.6357
LeftForeArm  35.704 -11.6801 -7.85299
LeftHand  -0.0257756 8.56196 0.681262
RightShoulder  -0.410532 -4.92265 21.9774
RightArm  -21.267 23.4643 24.3058
RightForeArm  38.0742 23.7184 3.07842
RightHand  0.057248 0.991953 0.95175
LeftUpLeg  -10.6759 4.27648 5.1163
LeftLeg  68.4929 -2.91264 -7.41757
LeftFoot  7.39691 1.08022 -6.85555
LeftToes  1.648e-009 -9.21574e-011 2.55256e-011
942
root  30.6273 37.7426 -16.6939 -42.5865 84.59 -36.3226
RightUpLeg  -11.0887 -4.34747 4.47568
RightLeg  29.0394 -0.558238 -0.591375
RightFoot  -10.0468 -0.01505 -4.64592
RightToes  -8.14909e-010 0 -3.6325e-017
Spine  6.29248 -2.01756 10.1247
Spine1  9.60891 -0.532512 0.542342
HEad  -24.2905 -56.2171 12.3914
LeftShoulder1  0.112892 3.16996 -27.8186
LeftArm  -4.50957 9.50306 -42.8859
LeftForeArm  36.6884 -9.86825 -7.84355
LeftHand  -0.00835517 9.32538 1.21563
RightShoulder  -0.466734 -5.10515 22.2702
RightArm  -21.0772 23.7026 24.2572
RightForeArm  37.5135 23.5037 3.04155
RightHand  0.154547 1.25667 2.58669
LeftUpLeg  -14.7411 3.62948 4.61383
LeftLeg  67.5436 -2.46969 -5.86187
LeftFoot  5.794 0.802188 -5.5485
LeftToes  1.648e-009 -9.21574e-011 2.55256e-011
943
root  31.9023 38.0208 -16.6335 -35.2576 84.7263 -29.2484
RightUpLeg  -8.16951 -4.75898 3.55472
RightLeg  27.1249 0.0680324 -0.252194
RightFoot  -11.244 -0.0723578 -4.37649
RightToes  -8.14909e-010 0 -3.6325e-017
Spine  6.19622 -1.41029 10.0902
Spine1  9.47666 0.00088631 0.288368
HEad  -23.6106 -56.0936 10.7035
LeftShoulder1  -0.0173832 3.5546 -28.601
LeftArm  -5.2547 11.8569 -41.305
LeftForeArm  36.3075 -9.76667 -7.55985
LeftHand  0.0107454 9.17455 1.7848
RightShoulder  -0.467707 -5.12976 21.8711
RightArm  -20.4168 23.8512 24.324
RightForeArm  35.192 23.4967 3.16005
RightHand  0.111478 0.723834 2.04427
LeftUpLeg  -18.1637 3.12643 4.04997
LeftLeg  63.6227 -2.82292 -5.5642
LeftFoot  2.8237 0.543315 -4.51275
LeftToes  1.648e-009 -9.21574e-011 2.55256e-011
944
root  33.1707 38.2664 -16.5533 -28.6752 84.8018 -22.671
RightUpLeg  -4.83627 -5.52715 2.57124
RightLeg  24.9043 1.26842 0.211321
RightFoot  -12.2219 -0.116773 -4.40986
RightToes  -8.14909e-010 0 -3.6325e-017
Spine  6.28296 -0.862313 9.67841
Spine1  9.24407 0.438536 0.113267
HEad  -23.4528 -55.9817 10.3434
LeftShoulder1  -0.0370193 3.61028 -28.5851
LeftArm  -5.47037 14.4152 -40.1096
LeftForeArm  34.4657 -9.98853 -7.32494
LeftHand  -0.0201783 9.27072 0.863888
RightShoulder  -0.504951 -5.23826 22.2696
RightArm  -19.6559 24.1661 23.7867
RightForeArm  33.3848 23.3432 3.20825
RightHand  0.101289 0.111247 2.10705
LeftUpLeg  -20.0659 2.5268 3.60597
LeftLeg  56.6188 -3.61242 -5.39311
LeftFoot  0.598538 0.377988 -3.65456
LeftToes  1.648e-009 -9.21574e-011 2.55256e-011
945
root  34.3897 38.455 -16.4864 -19.5155 84.5102 -13.999
RightUpLeg  -2.25235 -6.37713 1.46384
RightLeg  22.7278 2.70467 0.675966
RightFoot  -13.022 -0.15539 -4.61092
RightToes  -8.14909e-010 0 -3.6325e-017
Spine  5.72248 -0.178499 9.5358
Spine1  9.55214 1.08866 -0.854692
HEad  -24.6206 -56.721 11.14
LeftShoulder1  -0.0195699 3.5617 -28.2127
LeftArm  -6.02808 16.725 -39.6398
LeftForeArm  33.7673 -10.0611 -7.07003
LeftHand  0.00614975 9.03073 1.68054
RightShoulder  -0.509001 -5.25111 22.2802
RightArm  -20.2593 24.2315 23.8073
RightForeArm  32.9224 23.2688 3.20535
RightHand  0.143095 1.22802 2.41271
LeftUpLeg  -21.2932 2.57489 3.07273
LeftLeg  46.9475 -4.24216 -4.47331
LeftFoot  -0.344992 0.304854 -3.1543
LeftToes  1.648e-009 -9.21574e-011 2.55256e-011
946
root  35.5947 38.5828 -16.4394 -14.0402 84.0168 -8.99304
RightUpLeg  0.379824 -6.84661 0.640888
RightLeg  20.4563 3.79687 0.875349
RightFoot  -13.7382 -0.186191 -4.45593
RightToes  -8.14909e-010 0 -3.6325e-017
Spine  6.56695 0.0735048 9.26609
Spine1  7.70193 1.34276 -1.85492
HEad  -24.1658 -56.7491 10.7451
LeftShoulder1  -0.0808937 3.74206 -27.6416
LeftArm  -6.28402 20.041 -39.0006
LeftForeArm  33.4284 -10.65 -6.7304
LeftHand  0.0133294 8.62515 2.01509
RightShoulder  -0.532461 -5.2849 23.0833
RightArm  -19.1499 24.7615 23.6541
RightForeArm  31.7042 22.573 3.01373
RightHand  0.0937637 1.14195 1.55862
LeftUpLeg  -21.2217 3.0353 2.84558
LeftLeg  34.8421 -4.14552 -2.77272
LeftFoot  -0.101844 0.362443 -3.66596
LeftToes  1.648e-009 -9.21574e-011 2.55256e-011
947
root  36.8161 38.6653 -16.4227 -12.7458 83.5303 -8.62842
RightUpLeg  2.66675 -6.93967 0.258816
RightLeg  17.9149 4.60369 0.939853
RightFoot  -14.3345 -0.205929 -4.18441
RightToes  -8.14909e-010 0 -3.6325e-017
Spine  5.11519 0.580967 9.15682
Spine1  8.80843 1.60884 -2.0956
HEad  -25.1636 -56.7571 11.4403
LeftShoulder1  -0.128996 3.87498 -28.6432
LeftArm  -6.42278 21.0975 -37.9561
LeftForeArm  33.2551 -10.3608 -6.68689
LeftHand  -0.0140463 9.23855 1.16669
RightShoulder  -0.519991 -5.2755 22.5115
RightArm  -20.1353 24.8877 24.1929
RightForeArm  32.8841 22.0171 2.69937
RightHand  0.123014 1.33611 2.00775
LeftUpLeg  -20.5864 3.73641 2.83342
LeftLeg  21.412 -3.79379 -1.28786
LeftFoot  0.524842 0.456231 -4.42659
LeftToes  1.648e-009 -9.21574e-011 2.55256e-011
948
root  38.0607 38.6959 -16.3823 -9.63602 83.2679 -5.59216
RightUpLeg  5.86309 -7.08447 -0.620018
RightLeg  15.5002 5.41315 0.87121
RightFoot  -15.1372 -0.220904 -3.56716
RightToes  -8.14909e-010 0 -3.6325e-017
Spine  5.02892 0.704718 8.03651
Spine1  8.88283 1.6608 -2.40077
HEad  -24.9091 -56.3379 11.6748
LeftShoulder1  -0.164339 3.97897 -28.4257
LeftArm  -7.20301 22.9754 -37.6979
LeftForeArm  33.4044 -10.1902 -6.34963
LeftHand  -0.0749857 9.6899 -0.538285
RightShoulder  -0.566175 -5.39525 23.1519
RightArm  -19.4893 24.6572 24.0575
RightForeArm  33.1193 22.0454 2.70902
RightHand  0.102743 1.67693 1.53922
LeftUpLeg  -18.5611 3.82724 2.47719
LeftLeg  8.56594 -3.53022 -0.459475
LeftFoot  -0.21768 0.43594 -4.45918
LeftToes  1.648e-009 -9.21574e-011 2.55256e-011
949
root  39.3222 38.6308 -16.3936 -6.47415 82.6768 -2.60913
RightUpLeg  8.3887 -7.08088 -1.63625
RightLeg  14.1806 6.34306 0.944143
RightFoot  -16.3021 -0.240939 -3.02076
RightToes  -8.14909e-010 0 -3.6325e-017
Spine  4.18322 0.937176 6.97049
Spine1  10.0291 1.87479 -2.6248
HEad  -24.7278 -56.168 11.4683
LeftShoulder1  -0.1358 3.89711 -28.3363
LeftArm  -8.57505 24.0811 -38.3103
LeftForeArm  33.7911 -9.15155 -6.06251
LeftHand  0.0205362 9.7415 1.90061
RightShoulder  -0.565374 -5.37637 23.4101
RightArm  -18.8657 24.4019 24.1386
RightForeArm  33.8743 21.4804 2.41055
RightHand  0.116237 2.0338 1.64887
LeftUpLeg  -16.8988 3.64744 2.21803
LeftLeg  -0.646585 -1.13664 -0.189686
LeftFoot  -1.0287 0.414863 -4.53661
LeftToes  1.648e-009 -9.21574e-011 2.55256e-011
950
root  40.691 38.3888 -16.4433 -5.27454 82.6539 -1.43774
RightUpLeg  10.6405 -6.66871 -2.31518
RightLeg  14.2779 6.20212 0.725785
RightFoot  -18.2985 -0.237156 -1.90467
RightToes  -8.14909e-010 0 -3.6325e-017
Spine  2.87475 0.886587 5.80206
Spine1  11.495 1.69487 -2.28258
HEad  -24.0457 -56.0597 11.1958
LeftShoulder1  -0.0772584 3.72901 -28.141
LeftArm  -9.2076 24.4395 -38.8634
LeftForeArm  34.3864 -8.10433 -5.8239
LeftHand  -0.0874621 9.62227 -0.936386
RightShoulder  -0.575011 -5.36317 24.1605
RightArm  -18.2514 24.1564 23.9116
RightForeArm  35.4176 20.9143 2.0637
RightHand  0.137307 1.99801 1.99025
LeftUpLeg  -16.7073 3.73311 1.63308
LeftLeg  -2.10201 2.65672 -0.636245
LeftFoot  -1.70078 0.397319 -4.57483
LeftToes  1.648e-009 -9.21574e-011 2.55256e-011
951
root  42.0723 38.0809 -16.5562 -3.24716 82.735 0.384766
RightUpLeg  12.1437 -5.58344 -3.09836
RightLeg  15.5415 5.63567 0.847856
RightFoot  -20.4763 -0.147116 -0.0956515
RightToes  -8.14909e-010 0 -3.6325e-017
Spine  2.54743 0.747734 4.55681
Spine1  11.376 1.37192 -1.78748
HEad  -23.6905 -55.1815 10.7208
LeftShoulder1  -0.154751 3.9504 -28.4925
LeftArm  -9.27655 24.2748 -38.8545
LeftForeArm  35.0275 -7.51812 -5.76935
LeftHand  -0.109352 9.77852 -1.37124
RightShoulder  -0.53268 -5.24881 23.7209
RightArm  -17.5744 22.0608 24.2472
RightForeArm  36.8618 21.4823 2.27287
RightHand  0.127784 1.96446 1.85102
LeftUpLeg  -18.3581 3.25928 0.602413
LeftLeg  3.05135 4.99288 -0.329515
LeftFoot  1.3233 0.106067 -1.2158
LeftToes  1.648e-009 -9.21574e-011 2.55256e-011
952
root  43.5411 37.8314 -16.6887 2.79214 82.5732 7.4082
RightUpLeg  14.4565 -3.65693 -4.57983
RightLeg  17.777 4.62209 1.10723
RightFoot  -21.7687 0.0283777 1.92002
RightToes  -8.14909e-010 0 -3.6325e-017
Spine  2.92625 0.759157 2.77347
Spine1  11.5483 1.29876 -1.51669
HEad  -24.1111 -53.1401 11.5665
LeftShoulder1  -0.254567 4.23124 -28.8238
LeftArm  -9.05305 23.4247 -38.6949
LeftForeArm  35.9811 -7.49101 -5.90667
LeftHand  -0.138803 10.3257 -1.78864
RightShoulder  -0.471475 -5.05732 23.4954
RightArm  -16.7286 19.1911 24.1061
RightForeArm  38.8443 22.4044 2.59059
RightHand  0.105842 1.60122 1.61552
LeftUpLeg  -18.4404 3.54694 -1.02373
LeftLeg  7.92262 4.47513 -0.0171644
LeftFoot  7.20461 -0.448865 2.51621
LeftToes  1.648e-009 -9.21574e-011 2.55256e-011
953
root  44.9502 37.5704 -16.853 9.24301 82.1168 14.5615
RightUpLeg  14.9435 -1.30657 -5.91884
RightLeg  22.7133 3.74204 1.55696
RightFoot  -22.1839 0.389123 5.59899
RightToes  -8.14909e-010 0 -3.6325e-017
Spine  3.69187 1.01318 1.78584
Spine1  10.9407 1.61455 -2.08846
HEad  -23.062 -53.6262 10.5607
LeftShoulder1  -0.296006 4.34164 -29.1678
LeftArm  -8.99731 22.0481 -38.8428
LeftForeArm  36.8507 -7.42774 -6.01507
LeftHand  -0.0803184 9.94867 -0.523305
RightShoulder  -0.491322 -5.11156 23.7078
RightArm  -15.841 16.3754 23.8139
RightForeArm  40.9582 22.5324 2.53735
RightHand  0.0956109 0.974569 1.65547
LeftUpLeg  -19.1828 5.03057 -3.00854
LeftLeg  14.1844 2.55476 0.512704
LeftFoot  9.28841 -0.893781 4.66315
LeftToes  1.648e-009 -9.21574e-011 2.55256e-011
954
root  46.3213 37.3636 -17.0252 18.5835 81.6236 24.5735
RightUpLeg  13.5406 0.0618693 -8.41055
RightLeg  30.8074 4.78429 2.85526
RightFoot  -20.8065 0.813644 11.992
RightToes  -8.14909e-010 0 -3.6325e-017
Spine  4.12236 1.20469 0.607119
Spine1  11.0349 1.96658 -3.44196
HEad  -21.3586 -55.1784 8.99221
LeftShoulder1  -0.243868 4.20091 -28.827
LeftArm  -8.77208 20.2575 -39.6039
LeftForeArm  36.6592 -8.00913 -6.20965
LeftHand  -0.186357 10.3587 -2.88203
RightShoulder  -0.571702 -5.34106 24.3592
RightArm  -16.6732 13.3765 23.4751
RightForeArm  44.0227 22.9537 2.51371
RightHand  0.087477 0.692413 1.6308
LeftUpLeg  -19.4274 5.31857 -5.39029
LeftLeg  20.0129 2.41988 1.37756
LeftFoot  5.63262 -0.98694 6.36218
LeftToes  1.648e-009 -9.21574e-011 2.55256e-011
